<?xml version="1.0" standalone="no"?>
<!DOCTYPE svg PUBLIC "-//W3C//DTD SVG 20010904//EN"
 "http://www.w3.org/TR/2001/REC-SVG-20010904/DTD/svg10.dtd">
<svg version="1.0" xmlns="http://www.w3.org/2000/svg"
 width="200.000000pt" height="200.000000pt" viewBox="0 0 200.000000 200.000000"
 preserveAspectRatio="xMidYMid meet">
<metadata>
Created by potrace 1.11, written by Peter Selinger 2001-2013
</metadata>
<g transform="translate(0.000000,200.000000) scale(0.100000,-0.100000)"
fill="#000000" stroke="none">
<path d="M862 1953 c-7 -2 -17 -13 -23 -24 -8 -15 -6 -25 10 -44 13 -17 21
-21 24 -13 3 7 6 -17 6 -54 1 -36 4 -73 7 -82 4 -12 0 -16 -16 -16 -22 0 -23
3 -17 68 3 41 2 55 -3 37 -4 -16 -8 -47 -9 -67 -1 -30 -5 -38 -19 -38 -10 0
-24 6 -31 13 -11 10 -13 9 -9 -3 2 -8 15 -17 29 -20 20 -5 25 -14 30 -50 l6
-45 1 48 c2 40 5 47 22 47 13 0 23 -10 30 -32 l10 -33 -4 30 c-4 24 0 33 17
40 12 6 23 20 25 33 3 18 -3 26 -27 35 -27 10 -31 16 -31 47 0 24 6 39 20 48
48 30 6 97 -48 75z m78 -201 c0 -10 -22 -32 -31 -32 -8 0 -18 48 -11 54 6 7
42 -12 42 -22z"/>
<path d="M789 1763 c-13 -15 -12 -15 11 -3 34 17 36 20 18 20 -9 0 -22 -7 -29
-17z"/>
<path d="M911 1630 c0 -8 4 -22 9 -30 12 -18 12 -2 0 25 -6 13 -9 15 -9 5z"/>
<path d="M852 1575 c0 -16 2 -22 5 -12 2 9 2 23 0 30 -3 6 -5 -1 -5 -18z"/>
<path d="M934 1529 c-4 -7 -22 -9 -47 -6 -47 6 -77 -6 -77 -32 0 -10 -18 -31
-40 -46 -58 -40 -105 -96 -140 -164 -16 -33 -38 -65 -49 -70 -10 -6 -24 -24
-31 -40 -10 -25 -9 -35 4 -62 10 -20 16 -58 16 -98 0 -134 58 -264 138 -309
49 -27 52 -41 52 -223 0 -139 0 -139 29 -171 25 -29 35 -32 95 -36 85 -6 85
-20 -3 -53 -39 -15 -71 -62 -70 -104 0 -29 1 -29 15 9 18 51 40 74 77 84 25 7
34 3 63 -26 37 -37 41 -38 226 -16 67 8 88 -4 88 -47 0 -28 2 -29 44 -29 l45
0 -9 30 c-10 36 -17 49 -43 78 -19 20 -39 28 -119 46 -19 4 -28 13 -28 26 0
11 -4 20 -9 20 -5 0 -10 41 -10 92 -1 50 -8 135 -17 189 -8 55 -13 103 -10
108 3 5 30 22 59 39 63 36 149 111 175 155 40 65 55 271 28 392 -43 200 -140
275 -358 275 -53 0 -89 -4 -94 -11z m56 -5 c0 -10 -70 -34 -102 -34 -42 0 -68
15 -40 22 10 3 26 1 35 -4 10 -5 28 -3 49 6 35 15 58 19 58 10z m197 -29 c32
-21 79 -107 104 -188 18 -56 20 -86 17 -175 -5 -124 -27 -188 -84 -243 -39
-38 -48 -33 -58 32 -3 21 -10 40 -14 43 -4 2 -55 -12 -112 -31 -93 -32 -119
-37 -227 -41 -68 -2 -123 -7 -123 -11 0 -3 9 -35 20 -70 11 -36 17 -67 15 -70
-3 -2 0 -10 7 -18 18 -22 4 -23 -30 -1 -64 40 -112 158 -112 274 l0 62 219 0
c212 -1 222 0 268 23 40 20 50 30 57 62 13 50 -13 86 -80 110 -41 15 -72 17
-194 12 -80 -2 -162 -8 -183 -11 l-39 -6 18 33 c25 50 79 113 122 143 34 23
41 25 76 15 80 -22 181 16 168 63 -5 21 -4 21 69 14 40 -3 84 -13 96 -21z
m-278 -19 c20 3 44 8 54 11 31 8 18 -15 -14 -26 -45 -16 -95 -14 -113 5 -22
22 -20 25 10 14 15 -6 43 -8 63 -4z m133 -237 c58 -16 78 -36 78 -77 l0 -37
-18 35 c-22 46 -74 70 -174 80 -43 4 -82 11 -86 15 -9 9 159 -4 200 -16z
m-172 -19 c-14 -4 -65 -8 -115 -9 -110 -1 -158 -23 -153 -69 4 -39 49 -51 194
-51 119 -1 227 13 252 32 20 16 14 45 -13 63 -14 9 -51 20 -83 25 l-57 8 62
-4 c85 -4 127 -29 131 -77 3 -29 -1 -37 -20 -43 -32 -10 -378 -19 -433 -11
-75 12 -95 51 -52 102 21 24 31 27 127 34 58 4 123 7 145 8 34 0 36 -1 15 -8z
m-110 -61 c0 -20 -15 -26 -25 -9 -9 15 3 43 15 35 5 -3 10 -15 10 -26z m175 6
c0 -10 -6 -20 -12 -22 -8 -3 -13 5 -13 22 0 17 5 25 13 23 6 -3 12 -13 12 -23z
m-120 -447 c39 -10 158 -5 202 8 l23 6 -17 -38 c-12 -29 -18 -83 -22 -214 l-6
-175 -52 -9 c-56 -9 -110 -3 -137 17 -15 11 -19 38 -25 194 -6 150 -10 185
-25 208 -18 27 -18 28 0 20 11 -4 37 -12 59 -17z m170 -468 c10 -11 16 -20 13
-20 -3 0 -13 9 -23 20 -10 11 -16 20 -13 20 3 0 13 -9 23 -20z"/>
</g>
</svg>
